<svg xmlns="http://www.w3.org/2000/svg" xmlns:xlink="http://www.w3.org/1999/xlink" id="OnionShare" x="0" y="0" version="1.1" viewBox="0 0 1024 1024" style="enable-background:new 0 0 1024 1024" xml:space="preserve"><style type="text/css">.st0{fill:#fff}.st1{fill:#4e0d4e}</style><switch><g><g><path d="M896,512c0-212.08-171.92-384-384-384c-112.14,0-213.06,48.08-283.26,124.74l130.35,130.35 C395.77,339.61,450.66,312,512,312c110.46,0,200,89.54,200,200h-88l176,176l176-176H896z" class="st0"/><circle cx="512" cy="512" r="512" class="st1"/><path d="M896,512c0-212.08-171.92-384-384-384c-112.14,0-213.06,48.08-283.26,124.74l130.35,130.35 C395.77,339.61,450.66,312,512,312c110.46,0,200,89.54,200,200h-88l176,176l176-176H896z" class="st0"/><path d="M128,512c0,212.08,171.92,384,384,384c112.14,0,213.06-48.08,283.26-124.74L664.91,640.91 C628.23,684.39,573.34,712,512,712c-110.46,0-200-89.54-200-200h88L224,336L48,512H128z" class="st0"/></g></g></switch></svg>